<svg xmlns="http://www.w3.org/2000/svg" width="800" height="420" viewBox="0 0 800 420">
<rect width="100%" height="100%" fill="#ffffff"/>
<text x="400.0" y="28" text-anchor="middle" font-family="monospace" font-size="20">Detector bake-off score ranking</text>
<text x="18" y="200.0" transform="rotate(-90 18 200.0)" font-family="monospace" font-size="12">Composite score</text>
<line x1="70" y1="55" x2="70" y2="345" stroke="#333333" stroke-width="1"/>
<line x1="70" y1="345" x2="770" y2="345" stroke="#333333" stroke-width="1"/>
<line x1="66" y1="345.0" x2="770" y2="345.0" stroke="#dddddd" stroke-width="1"/>
<text x="62" y="349.0" text-anchor="end" font-family="monospace" font-size="11">0.00</text>
<line x1="66" y1="200.0" x2="770" y2="200.0" stroke="#dddddd" stroke-width="1"/>
<text x="62" y="204.0" text-anchor="end" font-family="monospace" font-size="11">0.50</text>
<line x1="66" y1="55.0" x2="770" y2="55.0" stroke="#dddddd" stroke-width="1"/>
<text x="62" y="59.0" text-anchor="end" font-family="monospace" font-size="11">1.00</text>
<rect x="116.7" y="167.0" width="140.0" height="178.0" fill="#1f77b4"/>
<text x="186.7" y="161.0" text-anchor="middle" font-family="monospace" font-size="11">0.614</text>
<text x="186.7" y="392" text-anchor="middle" font-family="monospace" font-size="12">yolov9c</text>
<rect x="350.0" y="167.6" width="140.0" height="177.4" fill="#1f77b4"/>
<text x="420.0" y="161.6" text-anchor="middle" font-family="monospace" font-size="11">0.612</text>
<text x="420.0" y="392" text-anchor="middle" font-family="monospace" font-size="12">yolov8l</text>
<rect x="583.3" y="168.0" width="140.0" height="177.0" fill="#1f77b4"/>
<text x="653.3" y="162.0" text-anchor="middle" font-family="monospace" font-size="11">0.610</text>
<text x="653.3" y="392" text-anchor="middle" font-family="monospace" font-size="12">rtdetr-l</text>
</svg>
