<svg xmlns="http://www.w3.org/2000/svg" width="920" height="440" viewBox="0 0 920 440">
<rect width="100%" height="100%" fill="#ffffff"/>
<text x="460.0" y="28" text-anchor="middle" font-family="monospace" font-size="20">Tracker association errors</text>
<line x1="70" y1="70" x2="70" y2="360" stroke="#333333" stroke-width="1"/>
<line x1="70" y1="360" x2="880" y2="360" stroke="#333333" stroke-width="1"/>
<line x1="66" y1="360.0" x2="880" y2="360.0" stroke="#dddddd" stroke-width="1"/>
<text x="62" y="364.0" text-anchor="end" font-family="monospace" font-size="11">0.00</text>
<line x1="66" y1="215.0" x2="880" y2="215.0" stroke="#dddddd" stroke-width="1"/>
<text x="62" y="219.0" text-anchor="end" font-family="monospace" font-size="11">1252.35</text>
<line x1="66" y1="70.0" x2="880" y2="70.0" stroke="#dddddd" stroke-width="1"/>
<text x="62" y="74.0" text-anchor="end" font-family="monospace" font-size="11">2504.70</text>
<rect x="70" y="40" width="14" height="14" fill="#d62728"/>
<text x="90" y="52" font-family="monospace" font-size="12">ID switches</text>
<rect x="240" y="40" width="14" height="14" fill="#2ca02c"/>
<text x="260" y="52" font-family="monospace" font-size="12">Fragmentation</text>
<rect x="130.8" y="219.7" width="141.8" height="140.3" fill="#d62728"/>
<rect x="272.5" y="151.2" width="141.8" height="208.8" fill="#2ca02c"/>
<text x="272.5" y="410" text-anchor="middle" font-family="monospace" font-size="12">botsort</text>
<rect x="535.8" y="105.7" width="141.8" height="254.3" fill="#d62728"/>
<rect x="677.5" y="96.4" width="141.8" height="263.6" fill="#2ca02c"/>
<text x="677.5" y="410" text-anchor="middle" font-family="monospace" font-size="12">bytetrack</text>
</svg>
