<svg xmlns="http://www.w3.org/2000/svg" width="920" height="440" viewBox="0 0 920 440">
<rect width="100%" height="100%" fill="#ffffff"/>
<text x="460.0" y="28" text-anchor="middle" font-family="monospace" font-size="20">Tracker primary metrics</text>
<line x1="70" y1="70" x2="70" y2="360" stroke="#333333" stroke-width="1"/>
<line x1="70" y1="360" x2="880" y2="360" stroke="#333333" stroke-width="1"/>
<line x1="66" y1="360.0" x2="880" y2="360.0" stroke="#dddddd" stroke-width="1"/>
<text x="62" y="364.0" text-anchor="end" font-family="monospace" font-size="11">0.00</text>
<line x1="66" y1="215.0" x2="880" y2="215.0" stroke="#dddddd" stroke-width="1"/>
<text x="62" y="219.0" text-anchor="end" font-family="monospace" font-size="11">50.00</text>
<line x1="66" y1="70.0" x2="880" y2="70.0" stroke="#dddddd" stroke-width="1"/>
<text x="62" y="74.0" text-anchor="end" font-family="monospace" font-size="11">100.00</text>
<rect x="70" y="40" width="14" height="14" fill="#1f77b4"/>
<text x="90" y="52" font-family="monospace" font-size="12">MOTA</text>
<rect x="240" y="40" width="14" height="14" fill="#ff7f0e"/>
<text x="260" y="52" font-family="monospace" font-size="12">IDF1</text>
<rect x="130.8" y="126.5" width="141.8" height="233.5" fill="#1f77b4"/>
<rect x="272.5" y="127.4" width="141.8" height="232.6" fill="#ff7f0e"/>
<text x="272.5" y="410" text-anchor="middle" font-family="monospace" font-size="12">botsort</text>
<rect x="535.8" y="127.1" width="141.8" height="232.9" fill="#1f77b4"/>
<rect x="677.5" y="135.8" width="141.8" height="224.2" fill="#ff7f0e"/>
<text x="677.5" y="410" text-anchor="middle" font-family="monospace" font-size="12">bytetrack</text>
</svg>
